<?xml version="1.0" standalone="no"?><!DOCTYPE svg PUBLIC "-//W3C//DTD SVG 1.1//EN" "http://www.w3.org/Graphics/SVG/1.1/DTD/svg11.dtd"><svg t="1559794314359" class="icon" style="" viewBox="0 0 1024 1024" version="1.1" xmlns="http://www.w3.org/2000/svg" p-id="1645" xmlns:xlink="http://www.w3.org/1999/xlink" width="200" height="200"><defs><style type="text/css"></style></defs><path d="M211 861.7L840.2 97 563.1 433.8s142 33.5 215.8-73.2l-48.6-43.1s67.9 21.2 108.1-2.8c71.6-42.8 70.6-164 1.8-217.7" fill="#FFFFFF" p-id="1646"></path><path d="M211 871.7c-2.2 0-4.5-0.7-6.3-2.3-4.3-3.5-4.9-9.8-1.4-14.1L832.5 90.6c0.7-0.9 1.5-1.6 2.4-2.1 1.2-0.7 2.6-1.2 3.9-1.4 1.5-0.2 3 0 4.5 0.5 1 0.4 2 0.9 2.9 1.6 37.3 29.1 58.5 79.1 55.3 130.5-2.8 45.5-24 83.3-58.1 103.7-23.5 14-54.7 14.3-78.8 11.4l20.8 18.5c3.8 3.4 4.5 9 1.6 13.2-31.9 46.1-81.2 74.1-142.7 80.9-35.5 3.9-65.1-0.2-77.5-2.4L218.7 868c-2 2.4-4.9 3.7-7.7 3.7z m370.9-444.9c14.2 1.8 36.2 3.3 61 0.4 52.8-6 94-27.9 122.6-65.2l-41.8-37.1c-3.5-3.1-4.4-8.3-2.1-12.4 2.3-4.1 7.2-6 11.7-4.6 0.6 0.2 64.2 19.6 100-1.8 28.4-17 46-48.9 48.4-87.7 2.6-41.3-12.7-81.5-40.2-107.2L581.9 426.8z" fill="#543630" p-id="1647"></path><path d="M838.6 97l-7.8 9.5c39.7 60.1 30.9 151.6-29.4 187.7-40.2 24-70.8 23-70.8 23l11.3 22.9c-46.3 67-119.5 78.7-167.5 78.2l-12.8 15.6s142 33.5 215.8-73.2l-48.6-43.1s67.9 21.2 108.1-2.8c71.5-42.9 70.5-164 1.7-217.8z" fill="#EFE7DA" p-id="1648"></path><path d="M211 871.7c-2.2 0-4.5-0.7-6.3-2.3-4.3-3.5-4.9-9.8-1.4-14.1L832.5 90.6c0.7-0.9 1.5-1.6 2.4-2.1 1.2-0.7 2.6-1.2 3.9-1.4 1.5-0.2 3 0 4.5 0.5 1 0.4 2 0.9 2.9 1.6 37.3 29.1 58.5 79.1 55.3 130.5-2.8 45.5-24 83.3-58.1 103.7-23.5 14-54.7 14.3-78.8 11.4l20.8 18.5c3.8 3.4 4.5 9 1.6 13.2-31.9 46.1-81.2 74.1-142.7 80.9-35.5 3.9-65.1-0.2-77.5-2.4L218.7 868c-2 2.4-4.9 3.7-7.7 3.7z m370.9-444.9c14.2 1.8 36.2 3.3 61 0.4 52.8-6 94-27.9 122.6-65.2l-41.8-37.1c-3.5-3.1-4.4-8.3-2.1-12.4 2.3-4.1 7.2-6 11.7-4.6 0.6 0.2 64.2 19.6 100-1.8 28.4-17 46-48.9 48.4-87.7 2.6-41.3-12.7-81.5-40.2-107.2L581.9 426.8z" fill="#543630" p-id="1649"></path><path d="M613 687.6l-76.9-33c-20.2-10.4-24.7-31.2-24.7-53.9l-0.6-17.7h5.3c24.8 0 45-20.3 45-45 0-24.8-20.3-45-45-45H286.7c-24.8 0-45 20.3-45 45 0 24.8 20.3 45 45 45h5.3l-0.6 17.7c0 22.7-4.5 43.5-24.7 53.9l-76.9 33c-18 7.7-29.7 25.5-29.7 45.1L152 892c0 19.3 15.7 35 35 35h428.8c19.3 0 35-15.7 35-35l-8.2-159.3c0.1-19.7-11.6-37.4-29.6-45.1z" fill="#FFFFFF" p-id="1650"></path><path d="M207.9 877.6c-2.2 0-4.5-0.7-6.3-2.3-4.3-3.5-4.9-9.8-1.4-14.1C304 734.9 501.3 494.9 507.8 486.6c1.8-2.5 4.8-4.1 8.1-4.1 5.5 0 10 4.5 10 10 0 3.6-0.8 4.5-5.7 10.6-2.3 2.8-5.6 6.8-9.8 12-8.4 10.3-20.5 25-34.9 42.6-28.9 35.2-67.4 82.1-105.9 128.9L215.6 874c-2 2.3-4.9 3.6-7.7 3.6z m298-385.1z m0 0z m0 0z m0 0z m0-0.1z m1.7-5.5c-0.1 0.1-0.2 0.3-0.3 0.4 0.1-0.1 0.2-0.2 0.3-0.4z" fill="#A59797" p-id="1651"></path><path d="M615.9 937H187c-24.8 0-45-20.2-45-45v-0.5l8.2-159.1c0.1-23.5 14.1-44.7 35.8-54l76.6-32.9c13.3-7 19-20.4 19-44.8v-0.3l0.2-7.6c-28-2.5-50.1-26.1-50.1-54.8 0-30.3 24.7-55 55-55h229.4c30.3 0 55 24.7 55 55 0 28.7-22 52.3-50.1 54.8l0.2 7.6v0.3c0 24.4 5.7 37.9 19 44.8l76.6 32.9c21.6 9.3 35.6 30.5 35.8 54l8.2 159.1v0.5c0.1 24.8-20.1 45-44.9 45zM162 892.2c0.1 13.7 11.3 24.8 25 24.8h428.8c13.7 0 24.9-11.1 25-24.8l-8.2-159.1v-0.5c0-15.6-9.3-29.7-23.6-35.9l-76.9-33-0.6-0.3c-26.9-13.8-30.1-42.3-30.1-62.6l-0.5-17.6c-0.1-2.7 0.9-5.3 2.8-7.3 1.9-1.9 4.5-3 7.2-3h5.3c19.3 0 35-15.7 35-35s-15.7-35-35-35H286.7c-19.3 0-35 15.7-35 35s15.7 35 35 35h5.3c2.7 0 5.3 1.1 7.2 3 1.9 1.9 2.9 4.6 2.8 7.3l-0.5 17.6c0 20.3-3.2 48.8-30.1 62.6l-0.6 0.3-76.9 33c-14.4 6.2-23.6 20.3-23.6 35.9v0.5L162 892.2z" fill="#543630" p-id="1652"></path><path d="M517.3 592.9H285.6c-29.8 0-54-24.2-54-54v-2.2c0-29.8 24.2-54 54-54h231.6c29.8 0 54 24.2 54 54v2.2c0 29.8-24.2 54-53.9 54z m-231.7-90.1c-18.7 0-34 15.2-34 34v2.2c0 18.7 15.2 34 34 34h231.6c18.7 0 34-15.2 34-34v-2.2c0-18.7-15.2-34-34-34H285.6z" fill="#543630" p-id="1653"></path><path d="M614.7 688.3H188.2c-17 8.1-28 25.3-28 44.3L152 892c0 19.3 15.7 35 35 35h428.8c19.3 0 35-15.7 35-35l-8.2-159.3c0.1-19.1-10.9-36.3-27.9-44.4z" fill="#FFDEE3" p-id="1654"></path><path d="M615.9 937H187c-24.8 0-45-20.2-45-45v-0.5l8.2-159.1c0.1-22.6 13.3-43.4 33.7-53.1 1.3-0.6 2.8-1 4.3-1h426.5c1.5 0 3 0.3 4.3 1 20.4 9.7 33.6 30.5 33.7 53.1l8.2 159.1v0.5c0 24.8-20.2 45-45 45zM162 892.2c0.1 13.7 11.3 24.8 25 24.8h428.8c13.7 0 24.9-11.1 25-24.8l-8.2-159.1v-0.5c0-14.3-7.9-27.5-20.4-34.3H190.6c-12.4 6.8-20.4 20-20.4 34.3v0.5L162 892.2z m490.7-159.6z" fill="#543630" p-id="1655"></path><path d="M642.7 732.6c0-19-10.9-36.2-28-44.3H604l7 125.7c1 27-8 63-67 63H152.8l-0.8 15c0 19.3 15.7 35 35 35h428.8c19.3 0 35-15.7 35-35l-8.1-159.4z" fill="#FFB3C2" p-id="1656"></path><path d="M477 825.3H231.2c-5.5 0-10-4.5-10-10v-51.6c0-5.5 4.5-10 10-10H477c5.5 0 10 4.5 10 10v51.6c0 5.6-4.4 10-10 10z" fill="#FF6687" p-id="1657"></path><path d="M477 835.3H231.2c-11 0-20-9-20-20v-51.6c0-11 9-20 20-20H477c11 0 20 9 20 20v51.6c0 11.1-8.9 20-20 20z m-245.8-71.6v51.6H477v-51.6H231.2z" fill="#543630" p-id="1658"></path><path d="M615.9 937H187c-24.8 0-45-20.2-45-45v-0.5l8.2-159.1c0.1-22.6 13.3-43.4 33.7-53.1 1.3-0.6 2.8-1 4.3-1h426.5c1.5 0 3 0.3 4.3 1 20.4 9.7 33.6 30.5 33.7 53.1l8.2 159.1v0.5c0 24.8-20.2 45-45 45zM162 892.2c0.1 13.7 11.3 24.8 25 24.8h428.8c13.7 0 24.9-11.1 25-24.8l-8.2-159.1v-0.5c0-14.3-7.9-27.5-20.4-34.3H190.6c-12.4 6.8-20.4 20-20.4 34.3v0.5L162 892.2z m490.7-159.6z" fill="#543630" p-id="1659"></path></svg>